<svg width="113" height="46" viewBox="0 0 113 46" fill="none" xmlns="http://www.w3.org/2000/svg">
<path d="M14.6281 27.6761L15.7114 22.9563L16.6143 27.6761H14.6281ZM6.27588 23.5029C6.27588 24.8322 5.73421 25.7486 4.15383 26.2531V22.2231C4.46018 22.1182 4.77932 22.0565 5.10227 22.04C5.95938 22.04 6.27588 22.7277 6.27588 23.5029ZM38.8269 26.8029L40.0917 21.0319L41.2663 26.806L38.8269 26.8029ZM28.2176 18.5525C29.5718 18.5525 30.0688 19.2898 30.0688 20.5232C30.0688 21.8525 29.3912 22.9985 27.901 23.4103V18.5525H28.2176ZM107.807 23.0206C107.807 22.6245 108.092 22.4022 108.61 22.4022C109.568 22.4022 111.258 23.4166 112.322 24.2349V20.1609C111.061 19.2814 109.538 18.6578 107.852 18.6578C105.129 18.6578 103.435 20.2947 103.435 23.0817C103.435 27.8425 108.623 27.8614 108.623 29.4561C108.623 29.9406 108.338 30.1934 107.585 30.1934C106.053 30.1934 104.085 29.1401 103.429 28.4987V32.8056C104.68 33.5534 106.499 33.9968 108.062 33.9968C111.202 33.9968 113 32.2221 113 29.3877C113.003 24.7522 107.812 24.5341 107.812 23.0248L107.807 23.0206ZM10.6507 22.9068C10.6549 19.5658 8.6231 18.2365 5.91476 18.2365C4.1092 18.2365 1.98715 18.8316 0 19.7943V33.5924H4.15071V30.2882C7.63005 29.6015 10.6549 26.943 10.6549 22.911L10.6507 22.9068ZM66.8639 17.4571C68.7606 17.4571 69.6655 19.4731 69.6655 23.0027C69.6655 26.5322 68.7627 28.5471 66.8639 28.5471C64.9649 28.5471 64.0621 26.5312 64.0621 23.0027C64.0621 19.4741 64.967 17.4571 66.8639 17.4571ZM8.53283 33.5882H12.9575L13.5894 31.3426H17.4289L17.9716 33.5882H22.6213L17.8792 15.4864C16.524 15.6244 15.035 15.8529 13.9059 16.1742L8.53283 33.5882ZM93.5456 15.3495C92.4167 15.1198 91.1528 14.8913 90.2489 14.7996V33.5882H94.4931V25.8433L99.0079 33.5882H102.259V17.1832C100.904 16.8167 99.5952 16.5418 98.1955 16.2669V24.3319L93.5456 15.3495ZM34.813 20.1156C34.813 16.1742 32.6463 13.9749 28.1315 13.9749C26.687 13.9749 24.7455 14.2035 23.2097 14.6616V33.5882H27.9052V28.5018C31.8743 27.2642 34.8088 24.3308 34.8088 20.1156H34.813ZM80.5881 21.8103V13.6084C79.4145 13.3788 77.0217 13.1491 75.847 13.1038V33.5882H80.5881V26.2563H83.7012V33.5882H88.4476V14.57C86.9574 14.2951 85.1519 14.0665 83.7074 13.9286V21.8103H80.5881ZM32.1898 33.5882H37.0669L37.7932 30.7443H42.1671L42.9796 33.5882H47.9469L42.3487 12.7826C40.9456 12.803 39.5443 12.8948 38.1502 13.0575L32.1898 33.5882ZM53.0471 27.6761C53.0471 28.822 52.4152 29.3266 51.4668 29.3266C50.9708 29.3266 50.429 29.1886 49.8417 28.96V33.6334C50.7902 33.9494 51.5124 34 52.5054 34C55.2595 34 57.9232 32.5802 57.9232 27.9962V12.3244C56.2988 12.2327 54.6705 12.2327 53.0462 12.3244L53.0471 27.6761ZM66.8618 33.9958C71.6931 33.9958 74.6724 29.6888 74.6724 22.9985C74.6724 16.903 72.0988 12 66.7268 12C61.9867 12 59.048 16.3985 59.048 22.9985C59.0532 30.1513 62.0324 34 66.8639 34L66.8618 33.9958Z" fill="#E1251B"/>
</svg>
